<svg width="81" height="25" viewBox="0 0 81 25" fill="none" xmlns="http://www.w3.org/2000/svg">
<path d="M15.5448 0H5.18164V2.21382H15.5448V0Z" fill="#FFFCF1"/>
<path d="M54.9401 15.8208C57.422 15.1188 59.0331 12.9914 59.0331 10.4104C59.0331 7.06268 56.4206 4.80566 52.5344 4.80566H43.1074V24.6221H45.2845V16.0476H52.6541L57.3458 24.6221H59.6971L54.7986 15.8532L54.9401 15.8208ZM52.5344 14.1037H45.2845V6.72791H52.5344C55.1143 6.72791 56.856 8.20739 56.856 10.4104C56.856 12.6242 55.1143 14.1037 52.5344 14.1037Z" fill="#FFFCF1"/>
<path d="M31.8178 25C37.1517 25 40.8746 21.2851 40.8746 15.9612V4.80566H38.6431V15.7992C38.6431 19.9029 35.8346 22.7754 31.8178 22.7754C28.4868 22.7754 24.9054 20.594 24.9054 15.7992V4.80566H22.6739V15.9504C22.663 21.2851 26.4294 25 31.8178 25Z" fill="#FFFCF1"/>
<path d="M69.8088 4.80566L60.6758 24.6221H63.0162L65.2695 19.5465H76.4164L78.6806 24.6221H81.021L71.8771 4.80566H69.8088ZM70.8538 7.39746L75.5673 17.6242H66.1077L70.8538 7.39746Z" fill="#FFFCF1"/>
<path d="M10.3631 22.7754C5.87824 22.7754 2.23155 19.1577 2.23155 14.7085C2.23155 10.2592 5.87824 6.6415 10.3631 6.6415C14.848 6.6415 18.4947 10.2592 18.4947 14.7085C18.4947 19.1685 14.848 22.7754 10.3631 22.7754ZM10.3631 4.43848C4.64817 4.43848 0 9.04971 0 14.7193C0 20.3888 4.64817 25 10.3631 25C16.0781 25 20.7262 20.3888 20.7262 14.7193C20.7262 9.04971 16.0781 4.43848 10.3631 4.43848Z" fill="#FFFCF1"/>
</svg>
