<svg width="100" height="18" viewBox="0 0 100 18" fill="none" xmlns="http://www.w3.org/2000/svg">
<path d="M34.6719 12.1506C34.6719 12.9527 34.0079 13.603 33.1887 13.603H28.7524H24.3162C23.497 13.603 22.8329 12.9527 22.8329 12.1506V5.63778C22.8329 4.83375 23.4985 4.18197 24.3196 4.18197H28.7524H33.1853C34.0063 4.18197 34.6719 4.83375 34.6719 5.63778V12.1506ZM36.5679 0.639587L19.1389 0.648007C18.2517 0.648007 17.4354 1.14798 17.011 1.95137L12.3689 10.7394C12.1188 11.2128 11.4598 11.2128 11.2098 10.7394L6.56759 1.95137C6.14323 1.14798 5.32696 0.648007 4.43966 0.648007H0.726077C0.384365 0.648007 0.107369 0.933612 0.107369 1.28602L0.108378 16.2032C0.0871903 16.5837 0.380857 16.9044 0.75057 16.9044H3.60847C4.12725 16.9044 4.54852 16.472 4.55086 15.9371L4.57989 9.34937C4.58124 9.03408 4.98328 8.9194 5.14177 9.18895L9.30867 16.2771C9.53738 16.6665 9.94677 16.9044 10.3882 16.9044H13.1904C13.6318 16.9044 14.0412 16.6665 14.2699 16.2771L18.3142 9.14969C18.4181 8.96649 18.6394 8.95501 18.7719 9.06926V14.3378C18.7719 15.7168 19.9135 16.8345 21.3216 16.8345H36.5738C37.9819 16.8345 39.1233 15.7168 39.1233 14.3378V3.14202C39.1233 1.75996 37.9793 0.639587 36.5679 0.639587Z" fill="#FFFCF1"/>
<path d="M81.7855 12.2531C81.7855 13.0624 81.1153 13.7184 80.289 13.7184H75.8131H71.3378C70.5108 13.7184 69.8413 13.0624 69.8413 12.2531V5.68224C69.8413 4.87102 70.5127 4.21348 71.3409 4.21348H75.8131H80.2853C81.114 4.21348 81.7855 4.87102 81.7855 5.68224V12.2531ZM99.5317 0.697753H97.6859C96.4005 0.697753 95.3576 1.77249 95.3576 3.09825V9.17321C95.3576 9.5717 94.8917 9.77267 94.6164 9.49275L87.026 1.76929C86.3299 1.06122 85.3894 0.667835 84.4119 0.676045L68.3226 0.639587C66.8983 0.639587 65.7437 1.76992 65.7437 3.16435V14.4598C65.7437 15.851 66.8958 16.9788 68.3164 16.9788L85.0932 17.0096C85.8732 17.0096 86.5051 16.3578 86.5051 15.5536V8.08137C86.5051 7.93083 86.681 7.85441 86.7859 7.95947L95.4428 16.6626C95.6637 16.8851 95.9605 17.0096 96.2697 17.0096H98.6561C99.3984 17.0096 100 16.3891 100 15.6235V1.18054C100 0.913854 99.7903 0.697753 99.5317 0.697753Z" fill="#FFFCF1"/>
<path d="M63.2278 7.92754H60.0568C59.7084 7.92754 59.4262 8.21863 59.4262 8.57774V13.8842C59.4262 14.1917 59.0671 14.3473 58.8541 14.1322L46.7044 1.86249C46.0807 1.23283 45.2428 0.880219 44.37 0.880219H41.0717C40.4927 0.880219 40.2062 1.60491 40.6196 2.02265C40.8052 2.21009 40.9817 2.38862 41.121 2.52889C42.1952 3.61391 45.3709 6.82175 46.8386 8.30356C47.1765 8.64477 47.1762 9.20257 46.8382 9.54378L40.6568 15.7894C40.215 16.2355 40.5215 17.0095 41.1398 17.0095C41.1398 17.0095 43.8298 17.0087 45.0706 17.0086C45.4639 17.0084 45.8416 16.8494 46.1226 16.5655L50.0811 12.5679C50.3534 12.2928 50.7894 12.2928 51.0616 12.5679L54.7852 16.329L55.0078 16.5538C55.297 16.8459 55.6857 17.0095 56.0906 17.0095H59.9864C59.9968 17.0095 60.0064 17.0076 60.0164 17.0071C60.031 17.0083 60.046 17.0095 60.061 17.0095H63.2303C63.5826 17.0095 63.8677 16.7151 63.8677 16.3518V8.58774C63.8677 8.22307 63.5814 7.92754 63.2278 7.92754Z" fill="#FFFCF1"/>
<path d="M63.2305 0.880219H55.6694C55.5102 0.880219 55.3571 0.944579 55.2433 1.05945L53.0912 3.23425C52.8497 3.47832 52.8497 3.87928 53.0916 4.12301L55.1799 6.22753C55.5079 6.55819 56.0319 6.55795 56.3596 6.22697L58.9077 3.65379C59.1011 3.4587 59.4268 3.5998 59.4268 3.87872V5.24958C59.4268 5.63252 59.7278 5.94298 60.0993 5.94298H63.2132C63.5754 5.94298 63.8686 5.64054 63.8686 5.26747V1.53792C63.8686 1.17467 63.5828 0.880219 63.2305 0.880219Z" fill="#FFFCF1"/>
</svg>
